<?xml version="1.0" encoding="utf-8" standalone="no"?>
<!DOCTYPE svg PUBLIC "-//W3C//DTD SVG 1.1//EN"
  "http://www.w3.org/Graphics/SVG/1.1/DTD/svg11.dtd">
<!-- Created with matplotlib (https://matplotlib.org/) -->
<svg height="157.22pt" version="1.1" viewBox="0 0 552.14 157.22" width="552.14pt" xmlns="http://www.w3.org/2000/svg" xmlns:xlink="http://www.w3.org/1999/xlink">
 <metadata>
  <rdf:RDF xmlns:cc="http://creativecommons.org/ns#" xmlns:dc="http://purl.org/dc/elements/1.1/" xmlns:rdf="http://www.w3.org/1999/02/22-rdf-syntax-ns#">
   <cc:Work>
    <dc:type rdf:resource="http://purl.org/dc/dcmitype/StillImage"/>
    <dc:date>2021-02-12T09:05:08.972420</dc:date>
    <dc:format>image/svg+xml</dc:format>
    <dc:creator>
     <cc:Agent>
      <dc:title>Matplotlib v3.3.4, https://matplotlib.org/</dc:title>
     </cc:Agent>
    </dc:creator>
   </cc:Work>
  </rdf:RDF>
 </metadata>
 <defs>
  <style type="text/css">*{stroke-linecap:butt;stroke-linejoin:round;}</style>
 </defs>
 <g id="figure_1">
  <g id="patch_1">
   <path d="M 0 157.22 
L 552.14 157.22 
L 552.14 0 
L 0 0 
z
" style="fill:none;"/>
  </g>
  <g id="axes_1">
   <g id="patch_2">
    <path d="M -1.18 158.4 
L 556.82 158.4 
L 556.82 -4.68 
L -1.18 -4.68 
z
" style="fill:none;"/>
   </g>
   <g id="matplotlib.axis_1"/>
   <g id="matplotlib.axis_2"/>
   <g id="line2d_1">
    <path clip-path="url(#p956787fe86)" d="M 9.550769 78.926147 
L 11.888627 77.353652 
L 13.057557 76.731054 
L 14.226486 76.337393 
L 15.395415 76.25397 
L 16.564344 76.548149 
L 17.733273 77.267832 
L 18.902202 78.436641 
L 20.071131 80.050149 
L 21.24006 82.073431 
L 23.577919 87.053687 
L 27.084706 95.019228 
L 28.253635 97.174811 
L 29.422564 98.792029 
L 30.591493 99.706208 
L 31.760422 99.772188 
L 32.929351 98.874123 
L 34.098281 96.934497 
L 35.26721 93.921806 
L 36.436139 89.856371 
L 37.605068 84.813863 
L 38.773997 78.926147 
L 41.111855 65.408304 
L 43.449713 51.330123 
L 44.618643 44.854187 
L 45.787572 39.189161 
L 46.956501 34.649434 
L 48.12543 31.520302 
L 49.294359 30.042278 
L 50.463288 30.396722 
L 51.632217 32.693601 
L 52.801146 36.962101 
L 53.970075 43.144744 
L 55.139005 51.095453 
L 56.307934 60.581865 
L 58.645792 82.84481 
L 62.152579 118.045322 
L 63.321508 128.35418 
L 64.490437 137.172778 
L 65.659367 144.094972 
L 66.828296 148.783537 
L 67.997225 150.987273 
L 69.166154 150.55448 
L 70.335083 147.442034 
L 71.504012 141.719543 
L 72.672941 133.568286 
L 73.84187 123.2749 
L 75.010799 111.22005 
L 77.348658 83.719831 
L 79.686516 55.303682 
L 80.855445 42.147112 
L 82.024374 30.389667 
L 83.193303 20.485354 
L 84.362232 12.808278 
L 85.531161 7.636711 
L 86.70009 5.141722 
L 87.86902 5.380852 
L 89.037949 8.297116 
L 90.206878 13.723292 
L 91.375807 21.391231 
L 92.544736 30.945658 
L 94.882594 53.965303 
L 98.389382 90.890611 
L 99.558311 101.90025 
L 100.72724 111.563985 
L 101.896169 119.563152 
L 103.065098 125.662697 
L 104.234027 129.718057 
L 105.402956 131.677569 
L 106.571885 131.58045 
L 107.740814 129.550643 
L 108.909744 125.786982 
L 110.078673 120.550342 
L 111.247602 114.148516 
L 113.58546 99.215328 
L 115.923318 83.753154 
L 117.092247 76.620427 
L 118.261176 70.23719 
L 119.430106 64.802538 
L 120.599035 60.457324 
L 121.767964 57.281869 
L 122.936893 55.296771 
L 124.105822 54.466559 
L 125.274751 54.705838 
L 126.44368 55.887445 
L 127.612609 57.852078 
L 128.781538 60.418798 
L 131.119397 66.591075 
L 133.457255 72.92323 
L 134.626184 75.755202 
L 135.795113 78.20746 
L 136.964042 80.202644 
L 138.132971 81.697444 
L 139.3019 82.681836 
L 140.47083 83.176623 
L 141.639759 83.229501 
L 142.808688 82.909995 
L 143.977617 82.303593 
L 146.315475 80.614072 
L 148.653333 78.926147 
L 406.986667 78.926147 
L 408.155596 79.080722 
L 409.324525 79.548742 
L 410.493454 80.319196 
L 411.662383 81.35715 
L 414.000241 83.97965 
L 416.3381 86.706634 
L 417.507029 87.823534 
L 418.675958 88.612492 
L 419.844887 88.956174 
L 421.013816 88.750655 
L 422.182745 87.912972 
L 423.351674 86.388127 
L 424.520603 84.155106 
L 425.689532 81.23149 
L 426.858462 77.676292 
L 429.19632 69.116745 
L 432.703107 55.296771 
L 433.872036 51.319553 
L 435.040965 48.061661 
L 436.209894 45.75495 
L 437.378824 44.606086 
L 438.547753 44.783972 
L 439.716682 46.408222 
L 440.885611 49.539366 
L 442.05454 54.171419 
L 443.223469 60.227341 
L 444.392398 67.55782 
L 446.730256 85.101616 
L 450.237044 113.641826 
L 451.405973 122.178434 
L 452.574902 129.549992 
L 453.743831 135.384042 
L 454.91276 139.357015 
L 456.081689 141.211502 
L 457.250618 140.771043 
L 458.419548 137.951609 
L 459.588477 132.769072 
L 460.757406 125.34216 
L 461.926335 115.890583 
L 463.095264 104.72831 
L 465.433122 78.926147 
L 468.93991 39.076247 
L 470.108839 27.613764 
L 471.277768 17.885326 
L 472.446697 10.298112 
L 473.615626 5.17364 
L 474.784555 2.732727 
L 475.953484 3.085027 
L 477.122413 6.223675 
L 478.291342 12.025331 
L 479.460271 20.255621 
L 480.629201 30.579719 
L 481.79813 42.577541 
L 484.135988 69.605007 
L 486.473846 97.0606 
L 487.642775 109.608282 
L 488.811704 120.727711 
L 489.980633 130.020179 
L 491.149563 137.172778 
L 492.318492 141.970044 
L 493.487421 144.300817 
L 494.65635 144.160118 
L 495.825279 141.646061 
L 496.994208 136.952107 
L 498.163137 130.35515 
L 499.332066 122.200162 
L 501.669925 102.827006 
L 505.176712 72.530786 
L 506.345641 63.700139 
L 507.51457 56.043053 
L 508.683499 49.78767 
L 509.852428 45.087775 
L 511.021357 42.020264 
L 512.190287 40.586377 
L 513.359216 40.716453 
L 514.528145 42.277766 
L 515.697074 45.084892 
L 516.866003 48.91195 
L 518.034932 53.505992 
L 523.879578 78.926147 
L 525.048507 82.946241 
L 526.217436 86.253726 
L 527.386365 88.781986 
L 528.555294 90.509551 
L 529.724223 91.457174 
L 530.893152 91.682996 
L 532.062081 91.276166 
L 533.231011 90.349357 
L 534.39994 89.030662 
L 536.737798 85.75772 
L 539.075656 82.486191 
L 540.244585 81.116286 
L 541.413514 80.023546 
L 542.582443 79.25199 
L 543.751373 78.819952 
L 544.920302 78.720998 
L 546.089231 78.926147 
L 546.089231 78.926147 
" style="fill:none;stroke:#e24a33;stroke-linecap:square;stroke-width:3;"/>
   </g>
   <g id="line2d_2">
    <path clip-path="url(#p956787fe86)" d="M 9.550769 78.926147 
L 10.719698 79.080722 
L 11.888627 79.548742 
L 13.057557 80.319196 
L 14.226486 81.35715 
L 16.564344 83.97965 
L 18.902202 86.706634 
L 20.071131 87.823534 
L 21.24006 88.612492 
L 22.408989 88.956174 
L 23.577919 88.750655 
L 24.746848 87.912972 
L 25.915777 86.388127 
L 27.084706 84.155106 
L 28.253635 81.23149 
L 29.422564 77.676292 
L 31.760422 69.116745 
L 35.26721 55.296771 
L 36.436139 51.319553 
L 37.605068 48.061661 
L 38.773997 45.75495 
L 39.942926 44.606086 
L 41.111855 44.783972 
L 42.280784 46.408222 
L 43.449713 49.539366 
L 44.618643 54.171419 
L 45.787572 60.227341 
L 46.956501 67.55782 
L 49.294359 85.101616 
L 52.801146 113.641826 
L 53.970075 122.178434 
L 55.139005 129.549992 
L 56.307934 135.384042 
L 57.476863 139.357015 
L 58.645792 141.211502 
L 59.814721 140.771043 
L 60.98365 137.951609 
L 62.152579 132.769072 
L 63.321508 125.34216 
L 64.490437 115.890583 
L 65.659367 104.72831 
L 67.997225 78.926147 
L 71.504012 39.076247 
L 72.672941 27.613764 
L 73.84187 17.885326 
L 75.010799 10.298112 
L 76.179729 5.17364 
L 77.348658 2.732727 
L 78.517587 3.085027 
L 79.686516 6.223675 
L 80.855445 12.025331 
L 82.024374 20.255621 
L 83.193303 30.579719 
L 84.362232 42.577541 
L 86.70009 69.605007 
L 89.037949 97.0606 
L 90.206878 109.608282 
L 91.375807 120.727711 
L 92.544736 130.020179 
L 93.713665 137.172778 
L 94.882594 141.970044 
L 96.051523 144.300817 
L 97.220452 144.160118 
L 98.389382 141.646061 
L 99.558311 136.952107 
L 100.72724 130.35515 
L 101.896169 122.200162 
L 104.234027 102.827006 
L 107.740814 72.530786 
L 108.909744 63.700139 
L 110.078673 56.043053 
L 111.247602 49.78767 
L 112.416531 45.087775 
L 113.58546 42.020264 
L 114.754389 40.586377 
L 115.923318 40.716453 
L 117.092247 42.277766 
L 118.261176 45.084892 
L 119.430106 48.91195 
L 120.599035 53.505992 
L 126.44368 78.926147 
L 127.612609 82.946241 
L 128.781538 86.253726 
L 129.950468 88.781986 
L 131.119397 90.509551 
L 132.288326 91.457174 
L 133.457255 91.682996 
L 134.626184 91.276166 
L 135.795113 90.349357 
L 136.964042 89.030662 
L 139.3019 85.75772 
L 141.639759 82.486191 
L 142.808688 81.116286 
L 143.977617 80.023546 
L 145.146546 79.25199 
L 146.315475 78.819952 
L 147.484404 78.720998 
L 148.653333 78.926147 
L 406.986667 78.926147 
L 409.324525 77.353652 
L 410.493454 76.731054 
L 411.662383 76.337393 
L 412.831312 76.25397 
L 414.000241 76.548149 
L 415.16917 77.267832 
L 416.3381 78.436641 
L 417.507029 80.050149 
L 418.675958 82.073431 
L 421.013816 87.053687 
L 424.520603 95.019228 
L 425.689532 97.174811 
L 426.858462 98.792029 
L 428.027391 99.706208 
L 429.19632 99.772188 
L 430.365249 98.874123 
L 431.534178 96.934497 
L 432.703107 93.921806 
L 433.872036 89.856371 
L 435.040965 84.813863 
L 436.209894 78.926147 
L 438.547753 65.408304 
L 440.885611 51.330123 
L 442.05454 44.854187 
L 443.223469 39.189161 
L 444.392398 34.649434 
L 445.561327 31.520302 
L 446.730256 30.042278 
L 447.899186 30.396722 
L 449.068115 32.693601 
L 450.237044 36.962101 
L 451.405973 43.144744 
L 452.574902 51.095453 
L 453.743831 60.581865 
L 456.081689 82.84481 
L 459.588477 118.045322 
L 460.757406 128.35418 
L 461.926335 137.172778 
L 463.095264 144.094972 
L 464.264193 148.783537 
L 465.433122 150.987273 
L 466.602051 150.55448 
L 467.77098 147.442034 
L 468.93991 141.719543 
L 470.108839 133.568286 
L 471.277768 123.2749 
L 472.446697 111.22005 
L 474.784555 83.719831 
L 477.122413 55.303682 
L 478.291342 42.147112 
L 479.460271 30.389667 
L 480.629201 20.485354 
L 481.79813 12.808278 
L 482.967059 7.636711 
L 484.135988 5.141722 
L 485.304917 5.380852 
L 486.473846 8.297116 
L 487.642775 13.723292 
L 488.811704 21.391231 
L 489.980633 30.945658 
L 492.318492 53.965303 
L 495.825279 90.890611 
L 496.994208 101.90025 
L 498.163137 111.563985 
L 499.332066 119.563152 
L 500.500995 125.662697 
L 501.669925 129.718057 
L 502.838854 131.677569 
L 504.007783 131.58045 
L 505.176712 129.550643 
L 506.345641 125.786982 
L 507.51457 120.550342 
L 508.683499 114.148516 
L 511.021357 99.215328 
L 513.359216 83.753154 
L 514.528145 76.620427 
L 515.697074 70.23719 
L 516.866003 64.802538 
L 518.034932 60.457324 
L 519.203861 57.281869 
L 520.37279 55.296771 
L 521.541719 54.466559 
L 522.710649 54.705838 
L 523.879578 55.887445 
L 525.048507 57.852078 
L 526.217436 60.418798 
L 528.555294 66.591075 
L 530.893152 72.92323 
L 532.062081 75.755202 
L 533.231011 78.20746 
L 534.39994 80.202644 
L 535.568869 81.697444 
L 536.737798 82.681836 
L 537.906727 83.176623 
L 539.075656 83.229501 
L 540.244585 82.909995 
L 541.413514 82.303593 
L 543.751373 80.614072 
L 546.089231 78.926147 
L 546.089231 78.926147 
" style="fill:none;stroke:#348abd;stroke-linecap:square;stroke-width:3;"/>
   </g>
   <g id="patch_3">
    <path style="fill:none;stroke:#ffffff;stroke-linecap:square;stroke-linejoin:miter;"/>
   </g>
   <g id="patch_4">
    <path style="fill:none;stroke:#ffffff;stroke-linecap:square;stroke-linejoin:miter;"/>
   </g>
   <g id="patch_5">
    <path style="fill:none;stroke:#ffffff;stroke-linecap:square;stroke-linejoin:miter;"/>
   </g>
   <g id="patch_6">
    <path style="fill:none;stroke:#ffffff;stroke-linecap:square;stroke-linejoin:miter;"/>
   </g>
   <g id="text_1">
    <!-- $seQuencing$ -->
    <g transform="translate(153.71 61.731564)scale(0.42 -0.42)">
     <defs>
      <path d="M 50 53.078125 
L 48.296875 44.578125 
Q 44.734375 46.53125 40.765625 47.5 
Q 36.8125 48.484375 32.625 48.484375 
Q 25.53125 48.484375 21.453125 46.0625 
Q 17.390625 43.65625 17.390625 39.5 
Q 17.390625 34.671875 26.859375 32.078125 
Q 27.59375 31.890625 27.9375 31.78125 
L 30.8125 30.90625 
Q 39.796875 28.421875 42.796875 25.6875 
Q 45.796875 22.953125 45.796875 18.21875 
Q 45.796875 9.515625 38.890625 4.046875 
Q 31.984375 -1.421875 20.796875 -1.421875 
Q 16.453125 -1.421875 11.671875 -0.578125 
Q 6.890625 0.25 1.125 2 
L 2.875 11.28125 
Q 7.8125 8.734375 12.59375 7.421875 
Q 17.390625 6.109375 21.78125 6.109375 
Q 28.375 6.109375 32.5 8.9375 
Q 36.625 11.765625 36.625 16.109375 
Q 36.625 20.796875 25.78125 23.6875 
L 24.859375 23.921875 
L 21.78125 24.703125 
Q 14.9375 26.515625 11.765625 29.46875 
Q 8.59375 32.421875 8.59375 37.015625 
Q 8.59375 45.75 15.15625 50.875 
Q 21.734375 56 33.015625 56 
Q 37.453125 56 41.671875 55.265625 
Q 45.90625 54.546875 50 53.078125 
z
" id="DejaVuSans-Oblique-115"/>
      <path d="M 48.09375 32.234375 
Q 48.25 33.015625 48.3125 33.84375 
Q 48.390625 34.671875 48.390625 35.5 
Q 48.390625 41.453125 44.890625 44.921875 
Q 41.40625 48.390625 35.40625 48.390625 
Q 28.71875 48.390625 23.578125 44.15625 
Q 18.453125 39.9375 15.828125 32.171875 
z
M 55.90625 25.203125 
L 14.109375 25.203125 
Q 13.8125 23.34375 13.71875 22.265625 
Q 13.625 21.1875 13.625 20.40625 
Q 13.625 13.625 17.796875 9.90625 
Q 21.96875 6.203125 29.59375 6.203125 
Q 35.453125 6.203125 40.671875 7.515625 
Q 45.90625 8.84375 50.390625 11.375 
L 48.6875 2.484375 
Q 43.84375 0.53125 38.6875 -0.4375 
Q 33.546875 -1.421875 28.21875 -1.421875 
Q 16.84375 -1.421875 10.71875 4.015625 
Q 4.59375 9.46875 4.59375 19.484375 
Q 4.59375 28.03125 7.640625 35.375 
Q 10.6875 42.71875 16.609375 48.484375 
Q 20.40625 52.09375 25.65625 54.046875 
Q 30.90625 56 36.8125 56 
Q 46.09375 56 51.578125 50.4375 
Q 57.078125 44.875 57.078125 35.5 
Q 57.078125 33.25 56.78125 30.6875 
Q 56.5 28.125 55.90625 25.203125 
z
" id="DejaVuSans-Oblique-101"/>
      <path d="M 36.078125 -1.3125 
Q 35.546875 -1.375 34.953125 -1.390625 
Q 34.375 -1.421875 33.203125 -1.421875 
Q 19.53125 -1.421875 11.8125 6.421875 
Q 4.109375 14.265625 4.109375 28.078125 
Q 4.109375 36.234375 7.0625 44.4375 
Q 10.015625 52.640625 15.28125 59.1875 
Q 21.390625 66.703125 29.03125 70.453125 
Q 36.671875 74.21875 45.90625 74.21875 
Q 59.28125 74.21875 66.984375 66.328125 
Q 74.703125 58.453125 74.703125 44.828125 
Q 74.703125 30.125 66.640625 17.921875 
Q 58.59375 5.71875 45.609375 0.6875 
L 55.515625 -12.890625 
L 44.484375 -12.890625 
z
M 45.609375 66.21875 
Q 37.5 66.21875 31.296875 62.28125 
Q 25.09375 58.34375 20.515625 50.296875 
Q 17.578125 45.171875 16.03125 39.40625 
Q 14.5 33.640625 14.5 27.78125 
Q 14.5 17.625 19.359375 12.109375 
Q 24.21875 6.59375 33.109375 6.59375 
Q 41.109375 6.59375 47.375 10.5625 
Q 53.65625 14.546875 58.109375 22.40625 
Q 61.078125 27.6875 62.640625 33.46875 
Q 64.203125 39.265625 64.203125 45.015625 
Q 64.203125 55.125 59.3125 60.671875 
Q 54.4375 66.21875 45.609375 66.21875 
z
" id="DejaVuSans-Oblique-81"/>
      <path d="M 6.6875 21.6875 
L 13.09375 54.6875 
L 22.125 54.6875 
L 15.71875 22.015625 
Q 15.234375 19.625 15.015625 17.921875 
Q 14.796875 16.21875 14.796875 15.09375 
Q 14.796875 10.9375 17.328125 8.65625 
Q 19.875 6.390625 24.515625 6.390625 
Q 31.734375 6.390625 37 11.265625 
Q 42.28125 16.15625 43.890625 24.421875 
L 49.90625 54.6875 
L 58.890625 54.6875 
L 48.296875 0 
L 39.3125 0 
L 41.109375 8.59375 
Q 37.3125 3.8125 32.0625 1.1875 
Q 26.8125 -1.421875 20.90625 -1.421875 
Q 13.71875 -1.421875 9.71875 2.515625 
Q 5.71875 6.453125 5.71875 13.484375 
Q 5.71875 14.9375 5.953125 17.140625 
Q 6.203125 19.34375 6.6875 21.6875 
z
" id="DejaVuSans-Oblique-117"/>
      <path d="M 55.71875 33.015625 
L 49.3125 0 
L 40.28125 0 
L 46.6875 32.671875 
Q 47.125 34.96875 47.359375 36.71875 
Q 47.609375 38.484375 47.609375 39.5 
Q 47.609375 43.609375 45.015625 45.890625 
Q 42.4375 48.1875 37.796875 48.1875 
Q 30.5625 48.1875 25.34375 43.375 
Q 20.125 38.578125 18.5 30.328125 
L 12.5 0 
L 3.515625 0 
L 14.109375 54.6875 
L 23.09375 54.6875 
L 21.296875 46.09375 
Q 25.046875 50.828125 30.3125 53.40625 
Q 35.59375 56 41.40625 56 
Q 48.640625 56 52.609375 52.09375 
Q 56.59375 48.1875 56.59375 41.109375 
Q 56.59375 39.359375 56.375 37.359375 
Q 56.15625 35.359375 55.71875 33.015625 
z
" id="DejaVuSans-Oblique-110"/>
      <path d="M 53.609375 52.59375 
L 51.8125 43.703125 
Q 48.578125 46.046875 44.9375 47.21875 
Q 41.3125 48.390625 37.40625 48.390625 
Q 33.109375 48.390625 29.21875 46.875 
Q 25.34375 45.359375 22.703125 42.578125 
Q 18.5 38.328125 16.203125 32.609375 
Q 13.921875 26.90625 13.921875 20.796875 
Q 13.921875 13.421875 17.609375 9.8125 
Q 21.296875 6.203125 28.8125 6.203125 
Q 32.515625 6.203125 36.6875 7.328125 
Q 40.875 8.453125 45.40625 10.6875 
L 43.703125 1.8125 
Q 39.796875 0.203125 35.671875 -0.609375 
Q 31.546875 -1.421875 27.203125 -1.421875 
Q 16.3125 -1.421875 10.453125 4.015625 
Q 4.59375 9.46875 4.59375 19.578125 
Q 4.59375 28.078125 7.640625 35.234375 
Q 10.6875 42.390625 16.703125 48.09375 
Q 20.796875 52 26.3125 54 
Q 31.84375 56 38.375 56 
Q 42.1875 56 45.9375 55.140625 
Q 49.703125 54.296875 53.609375 52.59375 
z
" id="DejaVuSans-Oblique-99"/>
      <path d="M 18.3125 75.984375 
L 27.296875 75.984375 
L 25.09375 64.59375 
L 16.109375 64.59375 
z
M 14.203125 54.6875 
L 23.1875 54.6875 
L 12.5 0 
L 3.515625 0 
z
" id="DejaVuSans-Oblique-105"/>
      <path d="M 59.625 54.6875 
L 50.296875 6.78125 
Q 47.609375 -7.125 40.015625 -13.953125 
Q 32.421875 -20.796875 19.578125 -20.796875 
Q 14.84375 -20.796875 10.78125 -20.09375 
Q 6.734375 -19.390625 3.21875 -17.921875 
L 4.890625 -9.1875 
Q 8.203125 -11.328125 11.90625 -12.34375 
Q 15.625 -13.375 19.828125 -13.375 
Q 28.375 -13.375 33.859375 -8.703125 
Q 39.359375 -4.046875 41.109375 4.6875 
L 41.890625 8.796875 
Q 38.140625 4.5 33.15625 2.25 
Q 28.171875 0 22.40625 0 
Q 14.109375 0 9.34375 5.484375 
Q 4.59375 10.984375 4.59375 20.609375 
Q 4.59375 28.171875 7.46875 35.421875 
Q 10.359375 42.671875 15.578125 48.296875 
Q 19.046875 52 23.65625 54 
Q 28.265625 56 33.296875 56 
Q 38.8125 56 42.90625 53.4375 
Q 47.015625 50.875 49.03125 46.1875 
L 50.59375 54.6875 
z
M 46.09375 34.625 
Q 46.09375 41.265625 42.96875 44.875 
Q 39.84375 48.484375 34.078125 48.484375 
Q 30.515625 48.484375 27.296875 47.0625 
Q 24.078125 45.65625 21.78125 43.109375 
Q 18.0625 38.921875 15.984375 33.234375 
Q 13.921875 27.546875 13.921875 21.484375 
Q 13.921875 14.75 17.0625 11.125 
Q 20.21875 7.515625 26.125 7.515625 
Q 34.671875 7.515625 40.375 15.25 
Q 46.09375 23 46.09375 34.625 
z
" id="DejaVuSans-Oblique-103"/>
     </defs>
     <use transform="translate(0 0.015625)" xlink:href="#DejaVuSans-Oblique-115"/>
     <use transform="translate(52.099609 0.015625)" xlink:href="#DejaVuSans-Oblique-101"/>
     <use transform="translate(113.623047 0.015625)" xlink:href="#DejaVuSans-Oblique-81"/>
     <use transform="translate(192.333984 0.015625)" xlink:href="#DejaVuSans-Oblique-117"/>
     <use transform="translate(255.712891 0.015625)" xlink:href="#DejaVuSans-Oblique-101"/>
     <use transform="translate(317.236328 0.015625)" xlink:href="#DejaVuSans-Oblique-110"/>
     <use transform="translate(380.615234 0.015625)" xlink:href="#DejaVuSans-Oblique-99"/>
     <use transform="translate(435.595703 0.015625)" xlink:href="#DejaVuSans-Oblique-105"/>
     <use transform="translate(463.378906 0.015625)" xlink:href="#DejaVuSans-Oblique-110"/>
     <use transform="translate(526.757812 0.015625)" xlink:href="#DejaVuSans-Oblique-103"/>
    </g>
   </g>
   <g id="text_2">
    <!-- Simulate realistic -->
    <g transform="translate(204.301641 103.379341)scale(0.17 -0.17)">
     <defs>
      <path d="M 53.515625 70.515625 
L 53.515625 60.890625 
Q 47.90625 63.578125 42.921875 64.890625 
Q 37.9375 66.21875 33.296875 66.21875 
Q 25.25 66.21875 20.875 63.09375 
Q 16.5 59.96875 16.5 54.203125 
Q 16.5 49.359375 19.40625 46.890625 
Q 22.3125 44.4375 30.421875 42.921875 
L 36.375 41.703125 
Q 47.40625 39.59375 52.65625 34.296875 
Q 57.90625 29 57.90625 20.125 
Q 57.90625 9.515625 50.796875 4.046875 
Q 43.703125 -1.421875 29.984375 -1.421875 
Q 24.8125 -1.421875 18.96875 -0.25 
Q 13.140625 0.921875 6.890625 3.21875 
L 6.890625 13.375 
Q 12.890625 10.015625 18.65625 8.296875 
Q 24.421875 6.59375 29.984375 6.59375 
Q 38.421875 6.59375 43.015625 9.90625 
Q 47.609375 13.234375 47.609375 19.390625 
Q 47.609375 24.75 44.3125 27.78125 
Q 41.015625 30.8125 33.5 32.328125 
L 27.484375 33.5 
Q 16.453125 35.6875 11.515625 40.375 
Q 6.59375 45.0625 6.59375 53.421875 
Q 6.59375 63.09375 13.40625 68.65625 
Q 20.21875 74.21875 32.171875 74.21875 
Q 37.3125 74.21875 42.625 73.28125 
Q 47.953125 72.359375 53.515625 70.515625 
z
" id="DejaVuSans-83"/>
      <path d="M 9.421875 54.6875 
L 18.40625 54.6875 
L 18.40625 0 
L 9.421875 0 
z
M 9.421875 75.984375 
L 18.40625 75.984375 
L 18.40625 64.59375 
L 9.421875 64.59375 
z
" id="DejaVuSans-105"/>
      <path d="M 52 44.1875 
Q 55.375 50.25 60.0625 53.125 
Q 64.75 56 71.09375 56 
Q 79.640625 56 84.28125 50.015625 
Q 88.921875 44.046875 88.921875 33.015625 
L 88.921875 0 
L 79.890625 0 
L 79.890625 32.71875 
Q 79.890625 40.578125 77.09375 44.375 
Q 74.3125 48.1875 68.609375 48.1875 
Q 61.625 48.1875 57.5625 43.546875 
Q 53.515625 38.921875 53.515625 30.90625 
L 53.515625 0 
L 44.484375 0 
L 44.484375 32.71875 
Q 44.484375 40.625 41.703125 44.40625 
Q 38.921875 48.1875 33.109375 48.1875 
Q 26.21875 48.1875 22.15625 43.53125 
Q 18.109375 38.875 18.109375 30.90625 
L 18.109375 0 
L 9.078125 0 
L 9.078125 54.6875 
L 18.109375 54.6875 
L 18.109375 46.1875 
Q 21.1875 51.21875 25.484375 53.609375 
Q 29.78125 56 35.6875 56 
Q 41.65625 56 45.828125 52.96875 
Q 50 49.953125 52 44.1875 
z
" id="DejaVuSans-109"/>
      <path d="M 8.5 21.578125 
L 8.5 54.6875 
L 17.484375 54.6875 
L 17.484375 21.921875 
Q 17.484375 14.15625 20.5 10.265625 
Q 23.53125 6.390625 29.59375 6.390625 
Q 36.859375 6.390625 41.078125 11.03125 
Q 45.3125 15.671875 45.3125 23.6875 
L 45.3125 54.6875 
L 54.296875 54.6875 
L 54.296875 0 
L 45.3125 0 
L 45.3125 8.40625 
Q 42.046875 3.421875 37.71875 1 
Q 33.40625 -1.421875 27.6875 -1.421875 
Q 18.265625 -1.421875 13.375 4.4375 
Q 8.5 10.296875 8.5 21.578125 
z
M 31.109375 56 
z
" id="DejaVuSans-117"/>
      <path d="M 9.421875 75.984375 
L 18.40625 75.984375 
L 18.40625 0 
L 9.421875 0 
z
" id="DejaVuSans-108"/>
      <path d="M 34.28125 27.484375 
Q 23.390625 27.484375 19.1875 25 
Q 14.984375 22.515625 14.984375 16.5 
Q 14.984375 11.71875 18.140625 8.90625 
Q 21.296875 6.109375 26.703125 6.109375 
Q 34.1875 6.109375 38.703125 11.40625 
Q 43.21875 16.703125 43.21875 25.484375 
L 43.21875 27.484375 
z
M 52.203125 31.203125 
L 52.203125 0 
L 43.21875 0 
L 43.21875 8.296875 
Q 40.140625 3.328125 35.546875 0.953125 
Q 30.953125 -1.421875 24.3125 -1.421875 
Q 15.921875 -1.421875 10.953125 3.296875 
Q 6 8.015625 6 15.921875 
Q 6 25.140625 12.171875 29.828125 
Q 18.359375 34.515625 30.609375 34.515625 
L 43.21875 34.515625 
L 43.21875 35.40625 
Q 43.21875 41.609375 39.140625 45 
Q 35.0625 48.390625 27.6875 48.390625 
Q 23 48.390625 18.546875 47.265625 
Q 14.109375 46.140625 10.015625 43.890625 
L 10.015625 52.203125 
Q 14.9375 54.109375 19.578125 55.046875 
Q 24.21875 56 28.609375 56 
Q 40.484375 56 46.34375 49.84375 
Q 52.203125 43.703125 52.203125 31.203125 
z
" id="DejaVuSans-97"/>
      <path d="M 18.3125 70.21875 
L 18.3125 54.6875 
L 36.8125 54.6875 
L 36.8125 47.703125 
L 18.3125 47.703125 
L 18.3125 18.015625 
Q 18.3125 11.328125 20.140625 9.421875 
Q 21.96875 7.515625 27.59375 7.515625 
L 36.8125 7.515625 
L 36.8125 0 
L 27.59375 0 
Q 17.1875 0 13.234375 3.875 
Q 9.28125 7.765625 9.28125 18.015625 
L 9.28125 47.703125 
L 2.6875 47.703125 
L 2.6875 54.6875 
L 9.28125 54.6875 
L 9.28125 70.21875 
z
" id="DejaVuSans-116"/>
      <path d="M 56.203125 29.59375 
L 56.203125 25.203125 
L 14.890625 25.203125 
Q 15.484375 15.921875 20.484375 11.0625 
Q 25.484375 6.203125 34.421875 6.203125 
Q 39.59375 6.203125 44.453125 7.46875 
Q 49.3125 8.734375 54.109375 11.28125 
L 54.109375 2.78125 
Q 49.265625 0.734375 44.1875 -0.34375 
Q 39.109375 -1.421875 33.890625 -1.421875 
Q 20.796875 -1.421875 13.15625 6.1875 
Q 5.515625 13.8125 5.515625 26.8125 
Q 5.515625 40.234375 12.765625 48.109375 
Q 20.015625 56 32.328125 56 
Q 43.359375 56 49.78125 48.890625 
Q 56.203125 41.796875 56.203125 29.59375 
z
M 47.21875 32.234375 
Q 47.125 39.59375 43.09375 43.984375 
Q 39.0625 48.390625 32.421875 48.390625 
Q 24.90625 48.390625 20.390625 44.140625 
Q 15.875 39.890625 15.1875 32.171875 
z
" id="DejaVuSans-101"/>
      <path id="DejaVuSans-32"/>
      <path d="M 41.109375 46.296875 
Q 39.59375 47.171875 37.8125 47.578125 
Q 36.03125 48 33.890625 48 
Q 26.265625 48 22.1875 43.046875 
Q 18.109375 38.09375 18.109375 28.8125 
L 18.109375 0 
L 9.078125 0 
L 9.078125 54.6875 
L 18.109375 54.6875 
L 18.109375 46.1875 
Q 20.953125 51.171875 25.484375 53.578125 
Q 30.03125 56 36.53125 56 
Q 37.453125 56 38.578125 55.875 
Q 39.703125 55.765625 41.0625 55.515625 
z
" id="DejaVuSans-114"/>
      <path d="M 44.28125 53.078125 
L 44.28125 44.578125 
Q 40.484375 46.53125 36.375 47.5 
Q 32.28125 48.484375 27.875 48.484375 
Q 21.1875 48.484375 17.84375 46.4375 
Q 14.5 44.390625 14.5 40.28125 
Q 14.5 37.15625 16.890625 35.375 
Q 19.28125 33.59375 26.515625 31.984375 
L 29.59375 31.296875 
Q 39.15625 29.25 43.1875 25.515625 
Q 47.21875 21.78125 47.21875 15.09375 
Q 47.21875 7.46875 41.1875 3.015625 
Q 35.15625 -1.421875 24.609375 -1.421875 
Q 20.21875 -1.421875 15.453125 -0.5625 
Q 10.6875 0.296875 5.421875 2 
L 5.421875 11.28125 
Q 10.40625 8.6875 15.234375 7.390625 
Q 20.0625 6.109375 24.8125 6.109375 
Q 31.15625 6.109375 34.5625 8.28125 
Q 37.984375 10.453125 37.984375 14.40625 
Q 37.984375 18.0625 35.515625 20.015625 
Q 33.0625 21.96875 24.703125 23.78125 
L 21.578125 24.515625 
Q 13.234375 26.265625 9.515625 29.90625 
Q 5.8125 33.546875 5.8125 39.890625 
Q 5.8125 47.609375 11.28125 51.796875 
Q 16.75 56 26.8125 56 
Q 31.78125 56 36.171875 55.265625 
Q 40.578125 54.546875 44.28125 53.078125 
z
" id="DejaVuSans-115"/>
      <path d="M 48.78125 52.59375 
L 48.78125 44.1875 
Q 44.96875 46.296875 41.140625 47.34375 
Q 37.3125 48.390625 33.40625 48.390625 
Q 24.65625 48.390625 19.8125 42.84375 
Q 14.984375 37.3125 14.984375 27.296875 
Q 14.984375 17.28125 19.8125 11.734375 
Q 24.65625 6.203125 33.40625 6.203125 
Q 37.3125 6.203125 41.140625 7.25 
Q 44.96875 8.296875 48.78125 10.40625 
L 48.78125 2.09375 
Q 45.015625 0.34375 40.984375 -0.53125 
Q 36.96875 -1.421875 32.421875 -1.421875 
Q 20.0625 -1.421875 12.78125 6.34375 
Q 5.515625 14.109375 5.515625 27.296875 
Q 5.515625 40.671875 12.859375 48.328125 
Q 20.21875 56 33.015625 56 
Q 37.15625 56 41.109375 55.140625 
Q 45.0625 54.296875 48.78125 52.59375 
z
" id="DejaVuSans-99"/>
     </defs>
     <use xlink:href="#DejaVuSans-83"/>
     <use x="63.476562" xlink:href="#DejaVuSans-105"/>
     <use x="91.259766" xlink:href="#DejaVuSans-109"/>
     <use x="188.671875" xlink:href="#DejaVuSans-117"/>
     <use x="252.050781" xlink:href="#DejaVuSans-108"/>
     <use x="279.833984" xlink:href="#DejaVuSans-97"/>
     <use x="341.113281" xlink:href="#DejaVuSans-116"/>
     <use x="380.322266" xlink:href="#DejaVuSans-101"/>
     <use x="441.845703" xlink:href="#DejaVuSans-32"/>
     <use x="473.632812" xlink:href="#DejaVuSans-114"/>
     <use x="512.496094" xlink:href="#DejaVuSans-101"/>
     <use x="574.019531" xlink:href="#DejaVuSans-97"/>
     <use x="635.298828" xlink:href="#DejaVuSans-108"/>
     <use x="663.082031" xlink:href="#DejaVuSans-105"/>
     <use x="690.865234" xlink:href="#DejaVuSans-115"/>
     <use x="742.964844" xlink:href="#DejaVuSans-116"/>
     <use x="782.173828" xlink:href="#DejaVuSans-105"/>
     <use x="809.957031" xlink:href="#DejaVuSans-99"/>
    </g>
    <!-- quantum control sequences -->
    <g transform="translate(159.190547 122.415623)scale(0.17 -0.17)">
     <defs>
      <path d="M 14.796875 27.296875 
Q 14.796875 17.390625 18.875 11.75 
Q 22.953125 6.109375 30.078125 6.109375 
Q 37.203125 6.109375 41.296875 11.75 
Q 45.40625 17.390625 45.40625 27.296875 
Q 45.40625 37.203125 41.296875 42.84375 
Q 37.203125 48.484375 30.078125 48.484375 
Q 22.953125 48.484375 18.875 42.84375 
Q 14.796875 37.203125 14.796875 27.296875 
z
M 45.40625 8.203125 
Q 42.578125 3.328125 38.25 0.953125 
Q 33.9375 -1.421875 27.875 -1.421875 
Q 17.96875 -1.421875 11.734375 6.484375 
Q 5.515625 14.40625 5.515625 27.296875 
Q 5.515625 40.1875 11.734375 48.09375 
Q 17.96875 56 27.875 56 
Q 33.9375 56 38.25 53.625 
Q 42.578125 51.265625 45.40625 46.390625 
L 45.40625 54.6875 
L 54.390625 54.6875 
L 54.390625 -20.796875 
L 45.40625 -20.796875 
z
" id="DejaVuSans-113"/>
      <path d="M 54.890625 33.015625 
L 54.890625 0 
L 45.90625 0 
L 45.90625 32.71875 
Q 45.90625 40.484375 42.875 44.328125 
Q 39.84375 48.1875 33.796875 48.1875 
Q 26.515625 48.1875 22.3125 43.546875 
Q 18.109375 38.921875 18.109375 30.90625 
L 18.109375 0 
L 9.078125 0 
L 9.078125 54.6875 
L 18.109375 54.6875 
L 18.109375 46.1875 
Q 21.34375 51.125 25.703125 53.5625 
Q 30.078125 56 35.796875 56 
Q 45.21875 56 50.046875 50.171875 
Q 54.890625 44.34375 54.890625 33.015625 
z
" id="DejaVuSans-110"/>
      <path d="M 30.609375 48.390625 
Q 23.390625 48.390625 19.1875 42.75 
Q 14.984375 37.109375 14.984375 27.296875 
Q 14.984375 17.484375 19.15625 11.84375 
Q 23.34375 6.203125 30.609375 6.203125 
Q 37.796875 6.203125 41.984375 11.859375 
Q 46.1875 17.53125 46.1875 27.296875 
Q 46.1875 37.015625 41.984375 42.703125 
Q 37.796875 48.390625 30.609375 48.390625 
z
M 30.609375 56 
Q 42.328125 56 49.015625 48.375 
Q 55.71875 40.765625 55.71875 27.296875 
Q 55.71875 13.875 49.015625 6.21875 
Q 42.328125 -1.421875 30.609375 -1.421875 
Q 18.84375 -1.421875 12.171875 6.21875 
Q 5.515625 13.875 5.515625 27.296875 
Q 5.515625 40.765625 12.171875 48.375 
Q 18.84375 56 30.609375 56 
z
" id="DejaVuSans-111"/>
     </defs>
     <use xlink:href="#DejaVuSans-113"/>
     <use x="63.476562" xlink:href="#DejaVuSans-117"/>
     <use x="126.855469" xlink:href="#DejaVuSans-97"/>
     <use x="188.134766" xlink:href="#DejaVuSans-110"/>
     <use x="251.513672" xlink:href="#DejaVuSans-116"/>
     <use x="290.722656" xlink:href="#DejaVuSans-117"/>
     <use x="354.101562" xlink:href="#DejaVuSans-109"/>
     <use x="451.513672" xlink:href="#DejaVuSans-32"/>
     <use x="483.300781" xlink:href="#DejaVuSans-99"/>
     <use x="538.28125" xlink:href="#DejaVuSans-111"/>
     <use x="599.462891" xlink:href="#DejaVuSans-110"/>
     <use x="662.841797" xlink:href="#DejaVuSans-116"/>
     <use x="702.050781" xlink:href="#DejaVuSans-114"/>
     <use x="740.914062" xlink:href="#DejaVuSans-111"/>
     <use x="802.095703" xlink:href="#DejaVuSans-108"/>
     <use x="829.878906" xlink:href="#DejaVuSans-32"/>
     <use x="861.666016" xlink:href="#DejaVuSans-115"/>
     <use x="913.765625" xlink:href="#DejaVuSans-101"/>
     <use x="975.289062" xlink:href="#DejaVuSans-113"/>
     <use x="1038.765625" xlink:href="#DejaVuSans-117"/>
     <use x="1102.144531" xlink:href="#DejaVuSans-101"/>
     <use x="1163.667969" xlink:href="#DejaVuSans-110"/>
     <use x="1227.046875" xlink:href="#DejaVuSans-99"/>
     <use x="1282.027344" xlink:href="#DejaVuSans-101"/>
     <use x="1343.550781" xlink:href="#DejaVuSans-115"/>
    </g>
    <!-- using QuTiP -->
    <g transform="translate(227.668672 141.451904)scale(0.17 -0.17)">
     <defs>
      <path d="M 45.40625 27.984375 
Q 45.40625 37.75 41.375 43.109375 
Q 37.359375 48.484375 30.078125 48.484375 
Q 22.859375 48.484375 18.828125 43.109375 
Q 14.796875 37.75 14.796875 27.984375 
Q 14.796875 18.265625 18.828125 12.890625 
Q 22.859375 7.515625 30.078125 7.515625 
Q 37.359375 7.515625 41.375 12.890625 
Q 45.40625 18.265625 45.40625 27.984375 
z
M 54.390625 6.78125 
Q 54.390625 -7.171875 48.1875 -13.984375 
Q 42 -20.796875 29.203125 -20.796875 
Q 24.46875 -20.796875 20.265625 -20.09375 
Q 16.0625 -19.390625 12.109375 -17.921875 
L 12.109375 -9.1875 
Q 16.0625 -11.328125 19.921875 -12.34375 
Q 23.78125 -13.375 27.78125 -13.375 
Q 36.625 -13.375 41.015625 -8.765625 
Q 45.40625 -4.15625 45.40625 5.171875 
L 45.40625 9.625 
Q 42.625 4.78125 38.28125 2.390625 
Q 33.9375 0 27.875 0 
Q 17.828125 0 11.671875 7.65625 
Q 5.515625 15.328125 5.515625 27.984375 
Q 5.515625 40.671875 11.671875 48.328125 
Q 17.828125 56 27.875 56 
Q 33.9375 56 38.28125 53.609375 
Q 42.625 51.21875 45.40625 46.390625 
L 45.40625 54.6875 
L 54.390625 54.6875 
z
" id="DejaVuSans-103"/>
      <path d="M 39.40625 66.21875 
Q 28.65625 66.21875 22.328125 58.203125 
Q 16.015625 50.203125 16.015625 36.375 
Q 16.015625 22.609375 22.328125 14.59375 
Q 28.65625 6.59375 39.40625 6.59375 
Q 50.140625 6.59375 56.421875 14.59375 
Q 62.703125 22.609375 62.703125 36.375 
Q 62.703125 50.203125 56.421875 58.203125 
Q 50.140625 66.21875 39.40625 66.21875 
z
M 53.21875 1.3125 
L 66.21875 -12.890625 
L 54.296875 -12.890625 
L 43.5 -1.21875 
Q 41.890625 -1.3125 41.03125 -1.359375 
Q 40.1875 -1.421875 39.40625 -1.421875 
Q 24.03125 -1.421875 14.8125 8.859375 
Q 5.609375 19.140625 5.609375 36.375 
Q 5.609375 53.65625 14.8125 63.9375 
Q 24.03125 74.21875 39.40625 74.21875 
Q 54.734375 74.21875 63.90625 63.9375 
Q 73.09375 53.65625 73.09375 36.375 
Q 73.09375 23.6875 67.984375 14.640625 
Q 62.890625 5.609375 53.21875 1.3125 
z
" id="DejaVuSans-81"/>
      <path d="M -0.296875 72.90625 
L 61.375 72.90625 
L 61.375 64.59375 
L 35.5 64.59375 
L 35.5 0 
L 25.59375 0 
L 25.59375 64.59375 
L -0.296875 64.59375 
z
" id="DejaVuSans-84"/>
      <path d="M 19.671875 64.796875 
L 19.671875 37.40625 
L 32.078125 37.40625 
Q 38.96875 37.40625 42.71875 40.96875 
Q 46.484375 44.53125 46.484375 51.125 
Q 46.484375 57.671875 42.71875 61.234375 
Q 38.96875 64.796875 32.078125 64.796875 
z
M 9.8125 72.90625 
L 32.078125 72.90625 
Q 44.34375 72.90625 50.609375 67.359375 
Q 56.890625 61.8125 56.890625 51.125 
Q 56.890625 40.328125 50.609375 34.8125 
Q 44.34375 29.296875 32.078125 29.296875 
L 19.671875 29.296875 
L 19.671875 0 
L 9.8125 0 
z
" id="DejaVuSans-80"/>
     </defs>
     <use xlink:href="#DejaVuSans-117"/>
     <use x="63.378906" xlink:href="#DejaVuSans-115"/>
     <use x="115.478516" xlink:href="#DejaVuSans-105"/>
     <use x="143.261719" xlink:href="#DejaVuSans-110"/>
     <use x="206.640625" xlink:href="#DejaVuSans-103"/>
     <use x="270.117188" xlink:href="#DejaVuSans-32"/>
     <use x="301.904297" xlink:href="#DejaVuSans-81"/>
     <use x="380.615234" xlink:href="#DejaVuSans-117"/>
     <use x="443.994141" xlink:href="#DejaVuSans-84"/>
     <use x="501.953125" xlink:href="#DejaVuSans-105"/>
     <use x="529.736328" xlink:href="#DejaVuSans-80"/>
    </g>
   </g>
  </g>
 </g>
 <defs>
  <clipPath id="p956787fe86">
   <rect height="163.08" width="558" x="-1.18" y="-4.68"/>
  </clipPath>
 </defs>
</svg>
