<?xml version="1.0" encoding="utf-8" standalone="no"?>
<!DOCTYPE svg PUBLIC "-//W3C//DTD SVG 1.1//EN"
  "http://www.w3.org/Graphics/SVG/1.1/DTD/svg11.dtd">
<!-- Created with matplotlib (https://matplotlib.org/) -->
<svg height="155.78pt" version="1.1" viewBox="0 0 550.7 155.78" width="550.7pt" xmlns="http://www.w3.org/2000/svg" xmlns:xlink="http://www.w3.org/1999/xlink">
 <metadata>
  <rdf:RDF xmlns:cc="http://creativecommons.org/ns#" xmlns:dc="http://purl.org/dc/elements/1.1/" xmlns:rdf="http://www.w3.org/1999/02/22-rdf-syntax-ns#">
   <cc:Work>
    <dc:type rdf:resource="http://purl.org/dc/dcmitype/StillImage"/>
    <dc:date>2021-02-07T14:27:49.945837</dc:date>
    <dc:format>image/svg+xml</dc:format>
    <dc:creator>
     <cc:Agent>
      <dc:title>Matplotlib v3.3.4, https://matplotlib.org/</dc:title>
     </cc:Agent>
    </dc:creator>
   </cc:Work>
  </rdf:RDF>
 </metadata>
 <defs>
  <style type="text/css">*{stroke-linecap:butt;stroke-linejoin:round;}</style>
 </defs>
 <g id="figure_1">
  <g id="patch_1">
   <path d="M 0 155.78 
L 550.7 155.78 
L 550.7 0 
L 0 0 
z
" style="fill:none;"/>
  </g>
  <g id="axes_1">
   <g id="patch_2">
    <path d="M -1.9 157.68 
L 556.1 157.68 
L 556.1 -5.4 
L -1.9 -5.4 
z
" style="fill:none;"/>
   </g>
   <g id="matplotlib.axis_1"/>
   <g id="matplotlib.axis_2"/>
   <g id="line2d_1">
    <path clip-path="url(#pb87b4a673a)" d="M 8.830769 78.206147 
L 11.168627 76.633652 
L 12.337557 76.011054 
L 13.506486 75.617393 
L 14.675415 75.53397 
L 15.844344 75.828149 
L 17.013273 76.547832 
L 18.182202 77.716641 
L 19.351131 79.330149 
L 20.52006 81.353431 
L 22.857919 86.333687 
L 26.364706 94.299228 
L 27.533635 96.454811 
L 28.702564 98.072029 
L 29.871493 98.986208 
L 31.040422 99.052188 
L 32.209351 98.154123 
L 33.378281 96.214497 
L 34.54721 93.201806 
L 35.716139 89.136371 
L 36.885068 84.093863 
L 38.053997 78.206147 
L 40.391855 64.688304 
L 42.729713 50.610123 
L 43.898643 44.134187 
L 45.067572 38.469161 
L 46.236501 33.929434 
L 47.40543 30.800302 
L 48.574359 29.322278 
L 49.743288 29.676722 
L 50.912217 31.973601 
L 52.081146 36.242101 
L 53.250075 42.424744 
L 54.419005 50.375453 
L 55.587934 59.861865 
L 57.925792 82.12481 
L 61.432579 117.325322 
L 62.601508 127.63418 
L 63.770437 136.452778 
L 64.939367 143.374972 
L 66.108296 148.063537 
L 67.277225 150.267273 
L 68.446154 149.83448 
L 69.615083 146.722034 
L 70.784012 140.999543 
L 71.952941 132.848286 
L 73.12187 122.5549 
L 74.290799 110.50005 
L 76.628658 82.999831 
L 78.966516 54.583682 
L 80.135445 41.427112 
L 81.304374 29.669667 
L 82.473303 19.765354 
L 83.642232 12.088278 
L 84.811161 6.916711 
L 85.98009 4.421722 
L 87.14902 4.660852 
L 88.317949 7.577116 
L 89.486878 13.003292 
L 90.655807 20.671231 
L 91.824736 30.225658 
L 94.162594 53.245303 
L 97.669382 90.170611 
L 98.838311 101.18025 
L 100.00724 110.843985 
L 101.176169 118.843152 
L 102.345098 124.942697 
L 103.514027 128.998057 
L 104.682956 130.957569 
L 105.851885 130.86045 
L 107.020814 128.830643 
L 108.189744 125.066982 
L 109.358673 119.830342 
L 110.527602 113.428516 
L 112.86546 98.495328 
L 115.203318 83.033154 
L 116.372247 75.900427 
L 117.541176 69.51719 
L 118.710106 64.082538 
L 119.879035 59.737324 
L 121.047964 56.561869 
L 122.216893 54.576771 
L 123.385822 53.746559 
L 124.554751 53.985838 
L 125.72368 55.167445 
L 126.892609 57.132078 
L 128.061538 59.698798 
L 130.399397 65.871075 
L 132.737255 72.20323 
L 133.906184 75.035202 
L 135.075113 77.48746 
L 136.244042 79.482644 
L 137.412971 80.977444 
L 138.5819 81.961836 
L 139.75083 82.456623 
L 140.919759 82.509501 
L 142.088688 82.189995 
L 143.257617 81.583593 
L 145.595475 79.894072 
L 147.933333 78.206147 
L 406.266667 78.206147 
L 407.435596 78.360722 
L 408.604525 78.828742 
L 409.773454 79.599196 
L 410.942383 80.63715 
L 413.280241 83.25965 
L 415.6181 85.986634 
L 416.787029 87.103534 
L 417.955958 87.892492 
L 419.124887 88.236174 
L 420.293816 88.030655 
L 421.462745 87.192972 
L 422.631674 85.668127 
L 423.800603 83.435106 
L 424.969532 80.51149 
L 426.138462 76.956292 
L 428.47632 68.396745 
L 431.983107 54.576771 
L 433.152036 50.599553 
L 434.320965 47.341661 
L 435.489894 45.03495 
L 436.658824 43.886086 
L 437.827753 44.063972 
L 438.996682 45.688222 
L 440.165611 48.819366 
L 441.33454 53.451419 
L 442.503469 59.507341 
L 443.672398 66.83782 
L 446.010256 84.381616 
L 449.517044 112.921826 
L 450.685973 121.458434 
L 451.854902 128.829992 
L 453.023831 134.664042 
L 454.19276 138.637015 
L 455.361689 140.491502 
L 456.530618 140.051043 
L 457.699548 137.231609 
L 458.868477 132.049072 
L 460.037406 124.62216 
L 461.206335 115.170583 
L 462.375264 104.00831 
L 464.713122 78.206147 
L 468.21991 38.356247 
L 469.388839 26.893764 
L 470.557768 17.165326 
L 471.726697 9.578112 
L 472.895626 4.45364 
L 474.064555 2.012727 
L 475.233484 2.365027 
L 476.402413 5.503675 
L 477.571342 11.305331 
L 478.740271 19.535621 
L 479.909201 29.859719 
L 481.07813 41.857541 
L 483.415988 68.885007 
L 485.753846 96.3406 
L 486.922775 108.888282 
L 488.091704 120.007711 
L 489.260633 129.300179 
L 490.429563 136.452778 
L 491.598492 141.250044 
L 492.767421 143.580817 
L 493.93635 143.440118 
L 495.105279 140.926061 
L 496.274208 136.232107 
L 497.443137 129.63515 
L 498.612066 121.480162 
L 500.949925 102.107006 
L 504.456712 71.810786 
L 505.625641 62.980139 
L 506.79457 55.323053 
L 507.963499 49.06767 
L 509.132428 44.367775 
L 510.301357 41.300264 
L 511.470287 39.866377 
L 512.639216 39.996453 
L 513.808145 41.557766 
L 514.977074 44.364892 
L 516.146003 48.19195 
L 517.314932 52.785992 
L 523.159578 78.206147 
L 524.328507 82.226241 
L 525.497436 85.533726 
L 526.666365 88.061986 
L 527.835294 89.789551 
L 529.004223 90.737174 
L 530.173152 90.962996 
L 531.342081 90.556166 
L 532.511011 89.629357 
L 533.67994 88.310662 
L 536.017798 85.03772 
L 538.355656 81.766191 
L 539.524585 80.396286 
L 540.693514 79.303546 
L 541.862443 78.53199 
L 543.031373 78.099952 
L 544.200302 78.000998 
L 545.369231 78.206147 
L 545.369231 78.206147 
" style="fill:none;stroke:#e24a33;stroke-linecap:square;stroke-width:3;"/>
   </g>
   <g id="line2d_2">
    <path clip-path="url(#pb87b4a673a)" d="M 8.830769 78.206147 
L 9.999698 78.360722 
L 11.168627 78.828742 
L 12.337557 79.599196 
L 13.506486 80.63715 
L 15.844344 83.25965 
L 18.182202 85.986634 
L 19.351131 87.103534 
L 20.52006 87.892492 
L 21.688989 88.236174 
L 22.857919 88.030655 
L 24.026848 87.192972 
L 25.195777 85.668127 
L 26.364706 83.435106 
L 27.533635 80.51149 
L 28.702564 76.956292 
L 31.040422 68.396745 
L 34.54721 54.576771 
L 35.716139 50.599553 
L 36.885068 47.341661 
L 38.053997 45.03495 
L 39.222926 43.886086 
L 40.391855 44.063972 
L 41.560784 45.688222 
L 42.729713 48.819366 
L 43.898643 53.451419 
L 45.067572 59.507341 
L 46.236501 66.83782 
L 48.574359 84.381616 
L 52.081146 112.921826 
L 53.250075 121.458434 
L 54.419005 128.829992 
L 55.587934 134.664042 
L 56.756863 138.637015 
L 57.925792 140.491502 
L 59.094721 140.051043 
L 60.26365 137.231609 
L 61.432579 132.049072 
L 62.601508 124.62216 
L 63.770437 115.170583 
L 64.939367 104.00831 
L 67.277225 78.206147 
L 70.784012 38.356247 
L 71.952941 26.893764 
L 73.12187 17.165326 
L 74.290799 9.578112 
L 75.459729 4.45364 
L 76.628658 2.012727 
L 77.797587 2.365027 
L 78.966516 5.503675 
L 80.135445 11.305331 
L 81.304374 19.535621 
L 82.473303 29.859719 
L 83.642232 41.857541 
L 85.98009 68.885007 
L 88.317949 96.3406 
L 89.486878 108.888282 
L 90.655807 120.007711 
L 91.824736 129.300179 
L 92.993665 136.452778 
L 94.162594 141.250044 
L 95.331523 143.580817 
L 96.500452 143.440118 
L 97.669382 140.926061 
L 98.838311 136.232107 
L 100.00724 129.63515 
L 101.176169 121.480162 
L 103.514027 102.107006 
L 107.020814 71.810786 
L 108.189744 62.980139 
L 109.358673 55.323053 
L 110.527602 49.06767 
L 111.696531 44.367775 
L 112.86546 41.300264 
L 114.034389 39.866377 
L 115.203318 39.996453 
L 116.372247 41.557766 
L 117.541176 44.364892 
L 118.710106 48.19195 
L 119.879035 52.785992 
L 125.72368 78.206147 
L 126.892609 82.226241 
L 128.061538 85.533726 
L 129.230468 88.061986 
L 130.399397 89.789551 
L 131.568326 90.737174 
L 132.737255 90.962996 
L 133.906184 90.556166 
L 135.075113 89.629357 
L 136.244042 88.310662 
L 138.5819 85.03772 
L 140.919759 81.766191 
L 142.088688 80.396286 
L 143.257617 79.303546 
L 144.426546 78.53199 
L 145.595475 78.099952 
L 146.764404 78.000998 
L 147.933333 78.206147 
L 406.266667 78.206147 
L 408.604525 76.633652 
L 409.773454 76.011054 
L 410.942383 75.617393 
L 412.111312 75.53397 
L 413.280241 75.828149 
L 414.44917 76.547832 
L 415.6181 77.716641 
L 416.787029 79.330149 
L 417.955958 81.353431 
L 420.293816 86.333687 
L 423.800603 94.299228 
L 424.969532 96.454811 
L 426.138462 98.072029 
L 427.307391 98.986208 
L 428.47632 99.052188 
L 429.645249 98.154123 
L 430.814178 96.214497 
L 431.983107 93.201806 
L 433.152036 89.136371 
L 434.320965 84.093863 
L 435.489894 78.206147 
L 437.827753 64.688304 
L 440.165611 50.610123 
L 441.33454 44.134187 
L 442.503469 38.469161 
L 443.672398 33.929434 
L 444.841327 30.800302 
L 446.010256 29.322278 
L 447.179186 29.676722 
L 448.348115 31.973601 
L 449.517044 36.242101 
L 450.685973 42.424744 
L 451.854902 50.375453 
L 453.023831 59.861865 
L 455.361689 82.12481 
L 458.868477 117.325322 
L 460.037406 127.63418 
L 461.206335 136.452778 
L 462.375264 143.374972 
L 463.544193 148.063537 
L 464.713122 150.267273 
L 465.882051 149.83448 
L 467.05098 146.722034 
L 468.21991 140.999543 
L 469.388839 132.848286 
L 470.557768 122.5549 
L 471.726697 110.50005 
L 474.064555 82.999831 
L 476.402413 54.583682 
L 477.571342 41.427112 
L 478.740271 29.669667 
L 479.909201 19.765354 
L 481.07813 12.088278 
L 482.247059 6.916711 
L 483.415988 4.421722 
L 484.584917 4.660852 
L 485.753846 7.577116 
L 486.922775 13.003292 
L 488.091704 20.671231 
L 489.260633 30.225658 
L 491.598492 53.245303 
L 495.105279 90.170611 
L 496.274208 101.18025 
L 497.443137 110.843985 
L 498.612066 118.843152 
L 499.780995 124.942697 
L 500.949925 128.998057 
L 502.118854 130.957569 
L 503.287783 130.86045 
L 504.456712 128.830643 
L 505.625641 125.066982 
L 506.79457 119.830342 
L 507.963499 113.428516 
L 510.301357 98.495328 
L 512.639216 83.033154 
L 513.808145 75.900427 
L 514.977074 69.51719 
L 516.146003 64.082538 
L 517.314932 59.737324 
L 518.483861 56.561869 
L 519.65279 54.576771 
L 520.821719 53.746559 
L 521.990649 53.985838 
L 523.159578 55.167445 
L 524.328507 57.132078 
L 525.497436 59.698798 
L 527.835294 65.871075 
L 530.173152 72.20323 
L 531.342081 75.035202 
L 532.511011 77.48746 
L 533.67994 79.482644 
L 534.848869 80.977444 
L 536.017798 81.961836 
L 537.186727 82.456623 
L 538.355656 82.509501 
L 539.524585 82.189995 
L 540.693514 81.583593 
L 543.031373 79.894072 
L 545.369231 78.206147 
L 545.369231 78.206147 
" style="fill:none;stroke:#348abd;stroke-linecap:square;stroke-width:3;"/>
   </g>
   <g id="patch_3">
    <path style="fill:none;stroke:#ffffff;stroke-linecap:square;stroke-linejoin:miter;"/>
   </g>
   <g id="patch_4">
    <path style="fill:none;stroke:#ffffff;stroke-linecap:square;stroke-linejoin:miter;"/>
   </g>
   <g id="patch_5">
    <path style="fill:none;stroke:#ffffff;stroke-linecap:square;stroke-linejoin:miter;"/>
   </g>
   <g id="patch_6">
    <path style="fill:none;stroke:#ffffff;stroke-linecap:square;stroke-linejoin:miter;"/>
   </g>
   <g id="text_1">
    <!-- $seQuencing$ -->
    <g transform="translate(152.99 61.011564)scale(0.42 -0.42)">
     <defs>
      <path d="M 50 53.078125 
L 48.296875 44.578125 
Q 44.734375 46.53125 40.765625 47.5 
Q 36.8125 48.484375 32.625 48.484375 
Q 25.53125 48.484375 21.453125 46.0625 
Q 17.390625 43.65625 17.390625 39.5 
Q 17.390625 34.671875 26.859375 32.078125 
Q 27.59375 31.890625 27.9375 31.78125 
L 30.8125 30.90625 
Q 39.796875 28.421875 42.796875 25.6875 
Q 45.796875 22.953125 45.796875 18.21875 
Q 45.796875 9.515625 38.890625 4.046875 
Q 31.984375 -1.421875 20.796875 -1.421875 
Q 16.453125 -1.421875 11.671875 -0.578125 
Q 6.890625 0.25 1.125 2 
L 2.875 11.28125 
Q 7.8125 8.734375 12.59375 7.421875 
Q 17.390625 6.109375 21.78125 6.109375 
Q 28.375 6.109375 32.5 8.9375 
Q 36.625 11.765625 36.625 16.109375 
Q 36.625 20.796875 25.78125 23.6875 
L 24.859375 23.921875 
L 21.78125 24.703125 
Q 14.9375 26.515625 11.765625 29.46875 
Q 8.59375 32.421875 8.59375 37.015625 
Q 8.59375 45.75 15.15625 50.875 
Q 21.734375 56 33.015625 56 
Q 37.453125 56 41.671875 55.265625 
Q 45.90625 54.546875 50 53.078125 
z
" id="DejaVuSans-Oblique-115"/>
      <path d="M 48.09375 32.234375 
Q 48.25 33.015625 48.3125 33.84375 
Q 48.390625 34.671875 48.390625 35.5 
Q 48.390625 41.453125 44.890625 44.921875 
Q 41.40625 48.390625 35.40625 48.390625 
Q 28.71875 48.390625 23.578125 44.15625 
Q 18.453125 39.9375 15.828125 32.171875 
z
M 55.90625 25.203125 
L 14.109375 25.203125 
Q 13.8125 23.34375 13.71875 22.265625 
Q 13.625 21.1875 13.625 20.40625 
Q 13.625 13.625 17.796875 9.90625 
Q 21.96875 6.203125 29.59375 6.203125 
Q 35.453125 6.203125 40.671875 7.515625 
Q 45.90625 8.84375 50.390625 11.375 
L 48.6875 2.484375 
Q 43.84375 0.53125 38.6875 -0.4375 
Q 33.546875 -1.421875 28.21875 -1.421875 
Q 16.84375 -1.421875 10.71875 4.015625 
Q 4.59375 9.46875 4.59375 19.484375 
Q 4.59375 28.03125 7.640625 35.375 
Q 10.6875 42.71875 16.609375 48.484375 
Q 20.40625 52.09375 25.65625 54.046875 
Q 30.90625 56 36.8125 56 
Q 46.09375 56 51.578125 50.4375 
Q 57.078125 44.875 57.078125 35.5 
Q 57.078125 33.25 56.78125 30.6875 
Q 56.5 28.125 55.90625 25.203125 
z
" id="DejaVuSans-Oblique-101"/>
      <path d="M 36.078125 -1.3125 
Q 35.546875 -1.375 34.953125 -1.390625 
Q 34.375 -1.421875 33.203125 -1.421875 
Q 19.53125 -1.421875 11.8125 6.421875 
Q 4.109375 14.265625 4.109375 28.078125 
Q 4.109375 36.234375 7.0625 44.4375 
Q 10.015625 52.640625 15.28125 59.1875 
Q 21.390625 66.703125 29.03125 70.453125 
Q 36.671875 74.21875 45.90625 74.21875 
Q 59.28125 74.21875 66.984375 66.328125 
Q 74.703125 58.453125 74.703125 44.828125 
Q 74.703125 30.125 66.640625 17.921875 
Q 58.59375 5.71875 45.609375 0.6875 
L 55.515625 -12.890625 
L 44.484375 -12.890625 
z
M 45.609375 66.21875 
Q 37.5 66.21875 31.296875 62.28125 
Q 25.09375 58.34375 20.515625 50.296875 
Q 17.578125 45.171875 16.03125 39.40625 
Q 14.5 33.640625 14.5 27.78125 
Q 14.5 17.625 19.359375 12.109375 
Q 24.21875 6.59375 33.109375 6.59375 
Q 41.109375 6.59375 47.375 10.5625 
Q 53.65625 14.546875 58.109375 22.40625 
Q 61.078125 27.6875 62.640625 33.46875 
Q 64.203125 39.265625 64.203125 45.015625 
Q 64.203125 55.125 59.3125 60.671875 
Q 54.4375 66.21875 45.609375 66.21875 
z
" id="DejaVuSans-Oblique-81"/>
      <path d="M 6.6875 21.6875 
L 13.09375 54.6875 
L 22.125 54.6875 
L 15.71875 22.015625 
Q 15.234375 19.625 15.015625 17.921875 
Q 14.796875 16.21875 14.796875 15.09375 
Q 14.796875 10.9375 17.328125 8.65625 
Q 19.875 6.390625 24.515625 6.390625 
Q 31.734375 6.390625 37 11.265625 
Q 42.28125 16.15625 43.890625 24.421875 
L 49.90625 54.6875 
L 58.890625 54.6875 
L 48.296875 0 
L 39.3125 0 
L 41.109375 8.59375 
Q 37.3125 3.8125 32.0625 1.1875 
Q 26.8125 -1.421875 20.90625 -1.421875 
Q 13.71875 -1.421875 9.71875 2.515625 
Q 5.71875 6.453125 5.71875 13.484375 
Q 5.71875 14.9375 5.953125 17.140625 
Q 6.203125 19.34375 6.6875 21.6875 
z
" id="DejaVuSans-Oblique-117"/>
      <path d="M 55.71875 33.015625 
L 49.3125 0 
L 40.28125 0 
L 46.6875 32.671875 
Q 47.125 34.96875 47.359375 36.71875 
Q 47.609375 38.484375 47.609375 39.5 
Q 47.609375 43.609375 45.015625 45.890625 
Q 42.4375 48.1875 37.796875 48.1875 
Q 30.5625 48.1875 25.34375 43.375 
Q 20.125 38.578125 18.5 30.328125 
L 12.5 0 
L 3.515625 0 
L 14.109375 54.6875 
L 23.09375 54.6875 
L 21.296875 46.09375 
Q 25.046875 50.828125 30.3125 53.40625 
Q 35.59375 56 41.40625 56 
Q 48.640625 56 52.609375 52.09375 
Q 56.59375 48.1875 56.59375 41.109375 
Q 56.59375 39.359375 56.375 37.359375 
Q 56.15625 35.359375 55.71875 33.015625 
z
" id="DejaVuSans-Oblique-110"/>
      <path d="M 53.609375 52.59375 
L 51.8125 43.703125 
Q 48.578125 46.046875 44.9375 47.21875 
Q 41.3125 48.390625 37.40625 48.390625 
Q 33.109375 48.390625 29.21875 46.875 
Q 25.34375 45.359375 22.703125 42.578125 
Q 18.5 38.328125 16.203125 32.609375 
Q 13.921875 26.90625 13.921875 20.796875 
Q 13.921875 13.421875 17.609375 9.8125 
Q 21.296875 6.203125 28.8125 6.203125 
Q 32.515625 6.203125 36.6875 7.328125 
Q 40.875 8.453125 45.40625 10.6875 
L 43.703125 1.8125 
Q 39.796875 0.203125 35.671875 -0.609375 
Q 31.546875 -1.421875 27.203125 -1.421875 
Q 16.3125 -1.421875 10.453125 4.015625 
Q 4.59375 9.46875 4.59375 19.578125 
Q 4.59375 28.078125 7.640625 35.234375 
Q 10.6875 42.390625 16.703125 48.09375 
Q 20.796875 52 26.3125 54 
Q 31.84375 56 38.375 56 
Q 42.1875 56 45.9375 55.140625 
Q 49.703125 54.296875 53.609375 52.59375 
z
" id="DejaVuSans-Oblique-99"/>
      <path d="M 18.3125 75.984375 
L 27.296875 75.984375 
L 25.09375 64.59375 
L 16.109375 64.59375 
z
M 14.203125 54.6875 
L 23.1875 54.6875 
L 12.5 0 
L 3.515625 0 
z
" id="DejaVuSans-Oblique-105"/>
      <path d="M 59.625 54.6875 
L 50.296875 6.78125 
Q 47.609375 -7.125 40.015625 -13.953125 
Q 32.421875 -20.796875 19.578125 -20.796875 
Q 14.84375 -20.796875 10.78125 -20.09375 
Q 6.734375 -19.390625 3.21875 -17.921875 
L 4.890625 -9.1875 
Q 8.203125 -11.328125 11.90625 -12.34375 
Q 15.625 -13.375 19.828125 -13.375 
Q 28.375 -13.375 33.859375 -8.703125 
Q 39.359375 -4.046875 41.109375 4.6875 
L 41.890625 8.796875 
Q 38.140625 4.5 33.15625 2.25 
Q 28.171875 0 22.40625 0 
Q 14.109375 0 9.34375 5.484375 
Q 4.59375 10.984375 4.59375 20.609375 
Q 4.59375 28.171875 7.46875 35.421875 
Q 10.359375 42.671875 15.578125 48.296875 
Q 19.046875 52 23.65625 54 
Q 28.265625 56 33.296875 56 
Q 38.8125 56 42.90625 53.4375 
Q 47.015625 50.875 49.03125 46.1875 
L 50.59375 54.6875 
z
M 46.09375 34.625 
Q 46.09375 41.265625 42.96875 44.875 
Q 39.84375 48.484375 34.078125 48.484375 
Q 30.515625 48.484375 27.296875 47.0625 
Q 24.078125 45.65625 21.78125 43.109375 
Q 18.0625 38.921875 15.984375 33.234375 
Q 13.921875 27.546875 13.921875 21.484375 
Q 13.921875 14.75 17.0625 11.125 
Q 20.21875 7.515625 26.125 7.515625 
Q 34.671875 7.515625 40.375 15.25 
Q 46.09375 23 46.09375 34.625 
z
" id="DejaVuSans-Oblique-103"/>
     </defs>
     <use transform="translate(0 0.015625)" xlink:href="#DejaVuSans-Oblique-115"/>
     <use transform="translate(52.099609 0.015625)" xlink:href="#DejaVuSans-Oblique-101"/>
     <use transform="translate(113.623047 0.015625)" xlink:href="#DejaVuSans-Oblique-81"/>
     <use transform="translate(192.333984 0.015625)" xlink:href="#DejaVuSans-Oblique-117"/>
     <use transform="translate(255.712891 0.015625)" xlink:href="#DejaVuSans-Oblique-101"/>
     <use transform="translate(317.236328 0.015625)" xlink:href="#DejaVuSans-Oblique-110"/>
     <use transform="translate(380.615234 0.015625)" xlink:href="#DejaVuSans-Oblique-99"/>
     <use transform="translate(435.595703 0.015625)" xlink:href="#DejaVuSans-Oblique-105"/>
     <use transform="translate(463.378906 0.015625)" xlink:href="#DejaVuSans-Oblique-110"/>
     <use transform="translate(526.757812 0.015625)" xlink:href="#DejaVuSans-Oblique-103"/>
    </g>
   </g>
   <g id="text_2">
    <!-- Simulate realistic -->
    <g transform="translate(203.581641 102.659341)scale(0.17 -0.17)">
     <defs>
      <path d="M 53.515625 70.515625 
L 53.515625 60.890625 
Q 47.90625 63.578125 42.921875 64.890625 
Q 37.9375 66.21875 33.296875 66.21875 
Q 25.25 66.21875 20.875 63.09375 
Q 16.5 59.96875 16.5 54.203125 
Q 16.5 49.359375 19.40625 46.890625 
Q 22.3125 44.4375 30.421875 42.921875 
L 36.375 41.703125 
Q 47.40625 39.59375 52.65625 34.296875 
Q 57.90625 29 57.90625 20.125 
Q 57.90625 9.515625 50.796875 4.046875 
Q 43.703125 -1.421875 29.984375 -1.421875 
Q 24.8125 -1.421875 18.96875 -0.25 
Q 13.140625 0.921875 6.890625 3.21875 
L 6.890625 13.375 
Q 12.890625 10.015625 18.65625 8.296875 
Q 24.421875 6.59375 29.984375 6.59375 
Q 38.421875 6.59375 43.015625 9.90625 
Q 47.609375 13.234375 47.609375 19.390625 
Q 47.609375 24.75 44.3125 27.78125 
Q 41.015625 30.8125 33.5 32.328125 
L 27.484375 33.5 
Q 16.453125 35.6875 11.515625 40.375 
Q 6.59375 45.0625 6.59375 53.421875 
Q 6.59375 63.09375 13.40625 68.65625 
Q 20.21875 74.21875 32.171875 74.21875 
Q 37.3125 74.21875 42.625 73.28125 
Q 47.953125 72.359375 53.515625 70.515625 
z
" id="DejaVuSans-83"/>
      <path d="M 9.421875 54.6875 
L 18.40625 54.6875 
L 18.40625 0 
L 9.421875 0 
z
M 9.421875 75.984375 
L 18.40625 75.984375 
L 18.40625 64.59375 
L 9.421875 64.59375 
z
" id="DejaVuSans-105"/>
      <path d="M 52 44.1875 
Q 55.375 50.25 60.0625 53.125 
Q 64.75 56 71.09375 56 
Q 79.640625 56 84.28125 50.015625 
Q 88.921875 44.046875 88.921875 33.015625 
L 88.921875 0 
L 79.890625 0 
L 79.890625 32.71875 
Q 79.890625 40.578125 77.09375 44.375 
Q 74.3125 48.1875 68.609375 48.1875 
Q 61.625 48.1875 57.5625 43.546875 
Q 53.515625 38.921875 53.515625 30.90625 
L 53.515625 0 
L 44.484375 0 
L 44.484375 32.71875 
Q 44.484375 40.625 41.703125 44.40625 
Q 38.921875 48.1875 33.109375 48.1875 
Q 26.21875 48.1875 22.15625 43.53125 
Q 18.109375 38.875 18.109375 30.90625 
L 18.109375 0 
L 9.078125 0 
L 9.078125 54.6875 
L 18.109375 54.6875 
L 18.109375 46.1875 
Q 21.1875 51.21875 25.484375 53.609375 
Q 29.78125 56 35.6875 56 
Q 41.65625 56 45.828125 52.96875 
Q 50 49.953125 52 44.1875 
z
" id="DejaVuSans-109"/>
      <path d="M 8.5 21.578125 
L 8.5 54.6875 
L 17.484375 54.6875 
L 17.484375 21.921875 
Q 17.484375 14.15625 20.5 10.265625 
Q 23.53125 6.390625 29.59375 6.390625 
Q 36.859375 6.390625 41.078125 11.03125 
Q 45.3125 15.671875 45.3125 23.6875 
L 45.3125 54.6875 
L 54.296875 54.6875 
L 54.296875 0 
L 45.3125 0 
L 45.3125 8.40625 
Q 42.046875 3.421875 37.71875 1 
Q 33.40625 -1.421875 27.6875 -1.421875 
Q 18.265625 -1.421875 13.375 4.4375 
Q 8.5 10.296875 8.5 21.578125 
z
M 31.109375 56 
z
" id="DejaVuSans-117"/>
      <path d="M 9.421875 75.984375 
L 18.40625 75.984375 
L 18.40625 0 
L 9.421875 0 
z
" id="DejaVuSans-108"/>
      <path d="M 34.28125 27.484375 
Q 23.390625 27.484375 19.1875 25 
Q 14.984375 22.515625 14.984375 16.5 
Q 14.984375 11.71875 18.140625 8.90625 
Q 21.296875 6.109375 26.703125 6.109375 
Q 34.1875 6.109375 38.703125 11.40625 
Q 43.21875 16.703125 43.21875 25.484375 
L 43.21875 27.484375 
z
M 52.203125 31.203125 
L 52.203125 0 
L 43.21875 0 
L 43.21875 8.296875 
Q 40.140625 3.328125 35.546875 0.953125 
Q 30.953125 -1.421875 24.3125 -1.421875 
Q 15.921875 -1.421875 10.953125 3.296875 
Q 6 8.015625 6 15.921875 
Q 6 25.140625 12.171875 29.828125 
Q 18.359375 34.515625 30.609375 34.515625 
L 43.21875 34.515625 
L 43.21875 35.40625 
Q 43.21875 41.609375 39.140625 45 
Q 35.0625 48.390625 27.6875 48.390625 
Q 23 48.390625 18.546875 47.265625 
Q 14.109375 46.140625 10.015625 43.890625 
L 10.015625 52.203125 
Q 14.9375 54.109375 19.578125 55.046875 
Q 24.21875 56 28.609375 56 
Q 40.484375 56 46.34375 49.84375 
Q 52.203125 43.703125 52.203125 31.203125 
z
" id="DejaVuSans-97"/>
      <path d="M 18.3125 70.21875 
L 18.3125 54.6875 
L 36.8125 54.6875 
L 36.8125 47.703125 
L 18.3125 47.703125 
L 18.3125 18.015625 
Q 18.3125 11.328125 20.140625 9.421875 
Q 21.96875 7.515625 27.59375 7.515625 
L 36.8125 7.515625 
L 36.8125 0 
L 27.59375 0 
Q 17.1875 0 13.234375 3.875 
Q 9.28125 7.765625 9.28125 18.015625 
L 9.28125 47.703125 
L 2.6875 47.703125 
L 2.6875 54.6875 
L 9.28125 54.6875 
L 9.28125 70.21875 
z
" id="DejaVuSans-116"/>
      <path d="M 56.203125 29.59375 
L 56.203125 25.203125 
L 14.890625 25.203125 
Q 15.484375 15.921875 20.484375 11.0625 
Q 25.484375 6.203125 34.421875 6.203125 
Q 39.59375 6.203125 44.453125 7.46875 
Q 49.3125 8.734375 54.109375 11.28125 
L 54.109375 2.78125 
Q 49.265625 0.734375 44.1875 -0.34375 
Q 39.109375 -1.421875 33.890625 -1.421875 
Q 20.796875 -1.421875 13.15625 6.1875 
Q 5.515625 13.8125 5.515625 26.8125 
Q 5.515625 40.234375 12.765625 48.109375 
Q 20.015625 56 32.328125 56 
Q 43.359375 56 49.78125 48.890625 
Q 56.203125 41.796875 56.203125 29.59375 
z
M 47.21875 32.234375 
Q 47.125 39.59375 43.09375 43.984375 
Q 39.0625 48.390625 32.421875 48.390625 
Q 24.90625 48.390625 20.390625 44.140625 
Q 15.875 39.890625 15.1875 32.171875 
z
" id="DejaVuSans-101"/>
      <path id="DejaVuSans-32"/>
      <path d="M 41.109375 46.296875 
Q 39.59375 47.171875 37.8125 47.578125 
Q 36.03125 48 33.890625 48 
Q 26.265625 48 22.1875 43.046875 
Q 18.109375 38.09375 18.109375 28.8125 
L 18.109375 0 
L 9.078125 0 
L 9.078125 54.6875 
L 18.109375 54.6875 
L 18.109375 46.1875 
Q 20.953125 51.171875 25.484375 53.578125 
Q 30.03125 56 36.53125 56 
Q 37.453125 56 38.578125 55.875 
Q 39.703125 55.765625 41.0625 55.515625 
z
" id="DejaVuSans-114"/>
      <path d="M 44.28125 53.078125 
L 44.28125 44.578125 
Q 40.484375 46.53125 36.375 47.5 
Q 32.28125 48.484375 27.875 48.484375 
Q 21.1875 48.484375 17.84375 46.4375 
Q 14.5 44.390625 14.5 40.28125 
Q 14.5 37.15625 16.890625 35.375 
Q 19.28125 33.59375 26.515625 31.984375 
L 29.59375 31.296875 
Q 39.15625 29.25 43.1875 25.515625 
Q 47.21875 21.78125 47.21875 15.09375 
Q 47.21875 7.46875 41.1875 3.015625 
Q 35.15625 -1.421875 24.609375 -1.421875 
Q 20.21875 -1.421875 15.453125 -0.5625 
Q 10.6875 0.296875 5.421875 2 
L 5.421875 11.28125 
Q 10.40625 8.6875 15.234375 7.390625 
Q 20.0625 6.109375 24.8125 6.109375 
Q 31.15625 6.109375 34.5625 8.28125 
Q 37.984375 10.453125 37.984375 14.40625 
Q 37.984375 18.0625 35.515625 20.015625 
Q 33.0625 21.96875 24.703125 23.78125 
L 21.578125 24.515625 
Q 13.234375 26.265625 9.515625 29.90625 
Q 5.8125 33.546875 5.8125 39.890625 
Q 5.8125 47.609375 11.28125 51.796875 
Q 16.75 56 26.8125 56 
Q 31.78125 56 36.171875 55.265625 
Q 40.578125 54.546875 44.28125 53.078125 
z
" id="DejaVuSans-115"/>
      <path d="M 48.78125 52.59375 
L 48.78125 44.1875 
Q 44.96875 46.296875 41.140625 47.34375 
Q 37.3125 48.390625 33.40625 48.390625 
Q 24.65625 48.390625 19.8125 42.84375 
Q 14.984375 37.3125 14.984375 27.296875 
Q 14.984375 17.28125 19.8125 11.734375 
Q 24.65625 6.203125 33.40625 6.203125 
Q 37.3125 6.203125 41.140625 7.25 
Q 44.96875 8.296875 48.78125 10.40625 
L 48.78125 2.09375 
Q 45.015625 0.34375 40.984375 -0.53125 
Q 36.96875 -1.421875 32.421875 -1.421875 
Q 20.0625 -1.421875 12.78125 6.34375 
Q 5.515625 14.109375 5.515625 27.296875 
Q 5.515625 40.671875 12.859375 48.328125 
Q 20.21875 56 33.015625 56 
Q 37.15625 56 41.109375 55.140625 
Q 45.0625 54.296875 48.78125 52.59375 
z
" id="DejaVuSans-99"/>
     </defs>
     <use xlink:href="#DejaVuSans-83"/>
     <use x="63.476562" xlink:href="#DejaVuSans-105"/>
     <use x="91.259766" xlink:href="#DejaVuSans-109"/>
     <use x="188.671875" xlink:href="#DejaVuSans-117"/>
     <use x="252.050781" xlink:href="#DejaVuSans-108"/>
     <use x="279.833984" xlink:href="#DejaVuSans-97"/>
     <use x="341.113281" xlink:href="#DejaVuSans-116"/>
     <use x="380.322266" xlink:href="#DejaVuSans-101"/>
     <use x="441.845703" xlink:href="#DejaVuSans-32"/>
     <use x="473.632812" xlink:href="#DejaVuSans-114"/>
     <use x="512.496094" xlink:href="#DejaVuSans-101"/>
     <use x="574.019531" xlink:href="#DejaVuSans-97"/>
     <use x="635.298828" xlink:href="#DejaVuSans-108"/>
     <use x="663.082031" xlink:href="#DejaVuSans-105"/>
     <use x="690.865234" xlink:href="#DejaVuSans-115"/>
     <use x="742.964844" xlink:href="#DejaVuSans-116"/>
     <use x="782.173828" xlink:href="#DejaVuSans-105"/>
     <use x="809.957031" xlink:href="#DejaVuSans-99"/>
    </g>
    <!-- quantum control sequences -->
    <g transform="translate(158.470547 121.695623)scale(0.17 -0.17)">
     <defs>
      <path d="M 14.796875 27.296875 
Q 14.796875 17.390625 18.875 11.75 
Q 22.953125 6.109375 30.078125 6.109375 
Q 37.203125 6.109375 41.296875 11.75 
Q 45.40625 17.390625 45.40625 27.296875 
Q 45.40625 37.203125 41.296875 42.84375 
Q 37.203125 48.484375 30.078125 48.484375 
Q 22.953125 48.484375 18.875 42.84375 
Q 14.796875 37.203125 14.796875 27.296875 
z
M 45.40625 8.203125 
Q 42.578125 3.328125 38.25 0.953125 
Q 33.9375 -1.421875 27.875 -1.421875 
Q 17.96875 -1.421875 11.734375 6.484375 
Q 5.515625 14.40625 5.515625 27.296875 
Q 5.515625 40.1875 11.734375 48.09375 
Q 17.96875 56 27.875 56 
Q 33.9375 56 38.25 53.625 
Q 42.578125 51.265625 45.40625 46.390625 
L 45.40625 54.6875 
L 54.390625 54.6875 
L 54.390625 -20.796875 
L 45.40625 -20.796875 
z
" id="DejaVuSans-113"/>
      <path d="M 54.890625 33.015625 
L 54.890625 0 
L 45.90625 0 
L 45.90625 32.71875 
Q 45.90625 40.484375 42.875 44.328125 
Q 39.84375 48.1875 33.796875 48.1875 
Q 26.515625 48.1875 22.3125 43.546875 
Q 18.109375 38.921875 18.109375 30.90625 
L 18.109375 0 
L 9.078125 0 
L 9.078125 54.6875 
L 18.109375 54.6875 
L 18.109375 46.1875 
Q 21.34375 51.125 25.703125 53.5625 
Q 30.078125 56 35.796875 56 
Q 45.21875 56 50.046875 50.171875 
Q 54.890625 44.34375 54.890625 33.015625 
z
" id="DejaVuSans-110"/>
      <path d="M 30.609375 48.390625 
Q 23.390625 48.390625 19.1875 42.75 
Q 14.984375 37.109375 14.984375 27.296875 
Q 14.984375 17.484375 19.15625 11.84375 
Q 23.34375 6.203125 30.609375 6.203125 
Q 37.796875 6.203125 41.984375 11.859375 
Q 46.1875 17.53125 46.1875 27.296875 
Q 46.1875 37.015625 41.984375 42.703125 
Q 37.796875 48.390625 30.609375 48.390625 
z
M 30.609375 56 
Q 42.328125 56 49.015625 48.375 
Q 55.71875 40.765625 55.71875 27.296875 
Q 55.71875 13.875 49.015625 6.21875 
Q 42.328125 -1.421875 30.609375 -1.421875 
Q 18.84375 -1.421875 12.171875 6.21875 
Q 5.515625 13.875 5.515625 27.296875 
Q 5.515625 40.765625 12.171875 48.375 
Q 18.84375 56 30.609375 56 
z
" id="DejaVuSans-111"/>
     </defs>
     <use xlink:href="#DejaVuSans-113"/>
     <use x="63.476562" xlink:href="#DejaVuSans-117"/>
     <use x="126.855469" xlink:href="#DejaVuSans-97"/>
     <use x="188.134766" xlink:href="#DejaVuSans-110"/>
     <use x="251.513672" xlink:href="#DejaVuSans-116"/>
     <use x="290.722656" xlink:href="#DejaVuSans-117"/>
     <use x="354.101562" xlink:href="#DejaVuSans-109"/>
     <use x="451.513672" xlink:href="#DejaVuSans-32"/>
     <use x="483.300781" xlink:href="#DejaVuSans-99"/>
     <use x="538.28125" xlink:href="#DejaVuSans-111"/>
     <use x="599.462891" xlink:href="#DejaVuSans-110"/>
     <use x="662.841797" xlink:href="#DejaVuSans-116"/>
     <use x="702.050781" xlink:href="#DejaVuSans-114"/>
     <use x="740.914062" xlink:href="#DejaVuSans-111"/>
     <use x="802.095703" xlink:href="#DejaVuSans-108"/>
     <use x="829.878906" xlink:href="#DejaVuSans-32"/>
     <use x="861.666016" xlink:href="#DejaVuSans-115"/>
     <use x="913.765625" xlink:href="#DejaVuSans-101"/>
     <use x="975.289062" xlink:href="#DejaVuSans-113"/>
     <use x="1038.765625" xlink:href="#DejaVuSans-117"/>
     <use x="1102.144531" xlink:href="#DejaVuSans-101"/>
     <use x="1163.667969" xlink:href="#DejaVuSans-110"/>
     <use x="1227.046875" xlink:href="#DejaVuSans-99"/>
     <use x="1282.027344" xlink:href="#DejaVuSans-101"/>
     <use x="1343.550781" xlink:href="#DejaVuSans-115"/>
    </g>
    <!-- using QuTiP -->
    <g transform="translate(226.948672 140.731904)scale(0.17 -0.17)">
     <defs>
      <path d="M 45.40625 27.984375 
Q 45.40625 37.75 41.375 43.109375 
Q 37.359375 48.484375 30.078125 48.484375 
Q 22.859375 48.484375 18.828125 43.109375 
Q 14.796875 37.75 14.796875 27.984375 
Q 14.796875 18.265625 18.828125 12.890625 
Q 22.859375 7.515625 30.078125 7.515625 
Q 37.359375 7.515625 41.375 12.890625 
Q 45.40625 18.265625 45.40625 27.984375 
z
M 54.390625 6.78125 
Q 54.390625 -7.171875 48.1875 -13.984375 
Q 42 -20.796875 29.203125 -20.796875 
Q 24.46875 -20.796875 20.265625 -20.09375 
Q 16.0625 -19.390625 12.109375 -17.921875 
L 12.109375 -9.1875 
Q 16.0625 -11.328125 19.921875 -12.34375 
Q 23.78125 -13.375 27.78125 -13.375 
Q 36.625 -13.375 41.015625 -8.765625 
Q 45.40625 -4.15625 45.40625 5.171875 
L 45.40625 9.625 
Q 42.625 4.78125 38.28125 2.390625 
Q 33.9375 0 27.875 0 
Q 17.828125 0 11.671875 7.65625 
Q 5.515625 15.328125 5.515625 27.984375 
Q 5.515625 40.671875 11.671875 48.328125 
Q 17.828125 56 27.875 56 
Q 33.9375 56 38.28125 53.609375 
Q 42.625 51.21875 45.40625 46.390625 
L 45.40625 54.6875 
L 54.390625 54.6875 
z
" id="DejaVuSans-103"/>
      <path d="M 39.40625 66.21875 
Q 28.65625 66.21875 22.328125 58.203125 
Q 16.015625 50.203125 16.015625 36.375 
Q 16.015625 22.609375 22.328125 14.59375 
Q 28.65625 6.59375 39.40625 6.59375 
Q 50.140625 6.59375 56.421875 14.59375 
Q 62.703125 22.609375 62.703125 36.375 
Q 62.703125 50.203125 56.421875 58.203125 
Q 50.140625 66.21875 39.40625 66.21875 
z
M 53.21875 1.3125 
L 66.21875 -12.890625 
L 54.296875 -12.890625 
L 43.5 -1.21875 
Q 41.890625 -1.3125 41.03125 -1.359375 
Q 40.1875 -1.421875 39.40625 -1.421875 
Q 24.03125 -1.421875 14.8125 8.859375 
Q 5.609375 19.140625 5.609375 36.375 
Q 5.609375 53.65625 14.8125 63.9375 
Q 24.03125 74.21875 39.40625 74.21875 
Q 54.734375 74.21875 63.90625 63.9375 
Q 73.09375 53.65625 73.09375 36.375 
Q 73.09375 23.6875 67.984375 14.640625 
Q 62.890625 5.609375 53.21875 1.3125 
z
" id="DejaVuSans-81"/>
      <path d="M -0.296875 72.90625 
L 61.375 72.90625 
L 61.375 64.59375 
L 35.5 64.59375 
L 35.5 0 
L 25.59375 0 
L 25.59375 64.59375 
L -0.296875 64.59375 
z
" id="DejaVuSans-84"/>
      <path d="M 19.671875 64.796875 
L 19.671875 37.40625 
L 32.078125 37.40625 
Q 38.96875 37.40625 42.71875 40.96875 
Q 46.484375 44.53125 46.484375 51.125 
Q 46.484375 57.671875 42.71875 61.234375 
Q 38.96875 64.796875 32.078125 64.796875 
z
M 9.8125 72.90625 
L 32.078125 72.90625 
Q 44.34375 72.90625 50.609375 67.359375 
Q 56.890625 61.8125 56.890625 51.125 
Q 56.890625 40.328125 50.609375 34.8125 
Q 44.34375 29.296875 32.078125 29.296875 
L 19.671875 29.296875 
L 19.671875 0 
L 9.8125 0 
z
" id="DejaVuSans-80"/>
     </defs>
     <use xlink:href="#DejaVuSans-117"/>
     <use x="63.378906" xlink:href="#DejaVuSans-115"/>
     <use x="115.478516" xlink:href="#DejaVuSans-105"/>
     <use x="143.261719" xlink:href="#DejaVuSans-110"/>
     <use x="206.640625" xlink:href="#DejaVuSans-103"/>
     <use x="270.117188" xlink:href="#DejaVuSans-32"/>
     <use x="301.904297" xlink:href="#DejaVuSans-81"/>
     <use x="380.615234" xlink:href="#DejaVuSans-117"/>
     <use x="443.994141" xlink:href="#DejaVuSans-84"/>
     <use x="501.953125" xlink:href="#DejaVuSans-105"/>
     <use x="529.736328" xlink:href="#DejaVuSans-80"/>
    </g>
   </g>
  </g>
 </g>
 <defs>
  <clipPath id="pb87b4a673a">
   <rect height="163.08" width="558" x="-1.9" y="-5.4"/>
  </clipPath>
 </defs>
</svg>
